<svg width="350" height="250" shape-rendering="crispEdges" viewBox="0 0 354 254" fill="none" xmlns="http://www.w3.org/2000/svg">
<path d="M59.7996 142.438C58.9202 134.493 58.5492 118.608 57.5336 108.244C56.3091 95.7461 55.2254 83.2346 55.2254 70.6457C55.2254 62.6495 55.2254 55.7222 55.2254 47.651C55.2254 39.5644 55.2254 46.9589 55.2254 38.8582C55.2254 36.1528 55.2254 35.5166 55.2254 29.3619C55.0499 27.2516 53.1865 14.2382 56.5215 10.5452C60.032 3.51094 74.6007 3.51093 83.2015 3.51093C116.025 3.51107 148.012 2.00037 180.276 2.00037C209.218 2.00037 238.161 2.00037 267.104 2.00037C275.475 2.00037 284.461 1.95555 292.77 2.85283C300.193 3.65448 298.668 18.221 299.45 23.031C299.45 31.648 299.099 55.037 297.519 62.423C295.939 69.809 296.483 84.4051 294.524 91.4637C293.336 95.7416 293.103 100.213 292.031 104.565C290.963 108.9 290.673 114.592 290.673 119.049C290.673 122.528 290.369 128.689 289.538 131.711" stroke="#3D7B80" stroke-width="4" stroke-linecap="round"/>
<path d="M289.536 133.474C284.837 133.867 267.109 135.036 262.425 135.487C249.44 136.735 236.661 137.458 223.601 137.458C208.892 137.458 193.893 138.623 179.149 138.623C171.782 138.623 143.22 139.826 135.853 139.948C128.504 139.948 101.341 142.489 90.3653 142.489C79.3895 142.489 70.1186 143.434 59.5078 143.434" stroke="#3D7B80" stroke-width="4" stroke-linecap="round"/>
<path d="M58.7978 144.746C57.1553 146.844 55.3727 149.145 53.528 151.061C48.1157 156.685 43.3545 162.982 38.613 169.196C28.1132 182.957 20.0898 198.729 9.94383 212.775C7.04396 216.79 -0.293945 223.506 4.67442 228.023C6.45141 229.639 10.9798 230.207 13.3377 230.82C19.3469 232.381 25.3704 232.263 31.5574 232.263C48.9923 232.263 66.4158 231.452 83.8944 231.452C101.202 231.452 118.547 229.404 135.874 229.015C159.751 228.479 183.598 226.579 207.502 226.579C218.369 226.579 229.16 225.767 240.012 225.767C252.765 225.767 265.307 227.797 277.97 228.204C292.129 228.658 306.155 230.64 320.393 230.64C327.656 230.64 334.23 233.076 341.292 233.076C343.703 233.076 346.115 233.076 348.526 233.076C351.658 233.076 350.938 231.396 350.938 228.655C350.938 224.811 347.358 220.751 345.311 217.467C344.076 215.486 343.945 212.844 342.9 210.7C341.663 208.163 339.837 205.78 339.059 203.031C337.809 198.609 334.071 194.109 331.646 190.219C329.173 186.25 326.12 183.4 322.983 180.114C319.347 176.305 316.933 170.824 313.963 166.489C312.554 164.434 311.034 163.104 310.166 160.738C309.492 158.901 308.055 156.611 306.728 155.121C304.682 152.825 304.52 150.612 302.631 148.345C300.685 146.012 300.703 145.867 298.25 142.68C295.796 139.493 291.59 135.953 290.013 133.474" stroke="#3D7B80" stroke-width="4" stroke-linecap="round"/>
<path d="M352 231.283C352 235.214 351.416 239.275 351.194 243.235C350.954 247.506 343.157 246.25 340.276 246.821C335.69 247.728 330.708 247.219 326.048 247.219C318.18 247.219 310.439 247.239 302.602 246.599C291.809 245.719 280.673 246.422 269.849 246.422C257.26 246.422 244.804 248.813 232.175 248.813C221.645 248.813 211.115 248.813 200.586 248.813C177.277 248.813 153.848 246.34 130.517 247.263C108.181 248.147 85.9962 252 63.6688 252C56.212 252 48.9453 250.406 41.4759 250.406C34.7046 250.406 27.9334 250.406 21.1621 250.406C15.2427 250.406 6.69432 252.058 2.63807 247.042C1.31554 245.407 2.4591 239.338 2.4591 237.259C2.4591 234.205 2.4591 231.15 2.4591 228.096" stroke="#3D7B80" stroke-width="4" stroke-linecap="round"/>
<path d="M66.2535 18.9323C63.7748 22.4183 64.6182 37.6858 65.4585 45.601C65.8557 49.3398 66.1366 53.2282 66.2533 56.9798C66.4013 61.7357 67.5063 66.3021 67.2465 71.1066C66.9346 76.8826 66.9684 82.6424 66.9684 88.4262C66.9684 97.3605 68.0413 106.154 68.0413 115.073C68.0413 119.967 68.4302 123.182 68.4302 127.996C68.4302 129.66 70.0329 131.393 71.4047 131.444C73.6618 131.529 74.8021 131.444 77.0599 131.444C83.4932 131.444 89.2507 130.574 96.4681 130.574C103.686 130.574 110.952 129.355 118.181 129.355C124.681 129.355 154.179 127.996 160.639 127.996C166.805 128.129 208.61 127.265 214.805 127.265C228.276 127.265 241.489 124.478 254.973 124.478H278.652C283.09 124.478 282.558 118.712 282.594 117.04C282.665 113.823 283.09 107.08 283.09 103.096C283.09 98.5195 282.957 94.6786 283.586 90.1474C284.025 86.0882 284.747 72.8044 285.267 68.7456C285.777 64.7711 287.056 54.2908 287.552 48.8127C287.867 45.3267 289.395 26.1178 289.395 23.1861C289.395 20.5461 290.657 14.7741 281.107 13.7098C276.15 13.3614 272.236 13.3614 268.005 13.3614C259.173 13.3614 250.339 13.7098 241.484 13.7098C232.442 13.7098 223.47 12.6713 214.388 13.0324C202.056 13.5228 189.818 14.4064 177.459 14.4064C168.489 14.4064 159.44 13.9294 150.482 14.8321C146.406 15.2429 142.301 15.1031 138.205 15.1031C133.189 15.1031 128.199 15.7997 123.147 15.7997C120.269 15.7997 70.714 14.4502 66.2535 18.9323Z" stroke="#3D7B80" stroke-width="4" stroke-linecap="round"/>
<path d="M182.453 76.1072C182.453 79.2475 184.042 70.0282 184.55 66.9307C184.63 66.4422 184.752 64.3412 185.599 64.8193C186.775 65.4839 188.073 67.3421 188.977 68.3318C190.611 70.1208 192.57 71.801 194.647 73.0482C196.273 74.0253 194.688 73.9925 193.559 74.3311C190.469 75.2581 187.885 77.6894 184.55 77.8832C183.946 77.9182 183.152 78.5641 183.152 77.6069C183.152 76.6447 183.502 75.685 183.502 74.6863C183.502 73.0446 184.518 70.8471 184.9 69.2003C185.337 67.3122 186.807 71.1392 187.424 71.7657C187.606 71.9513 189.901 74.0631 189.715 74.2522C189.268 74.7069 184.955 76.1281 185.462 75.9296C186.283 75.6086 187.654 75.6363 188.317 74.9626C188.546 74.7292 188.334 75.6252 188.395 75.9494C188.994 79.1485 190.299 82.5003 191.967 85.2638C193.468 87.7496 193.508 86.5892 193.21 84.356C192.808 81.3457 189.793 72.8915 189.793 75.9296C189.793 76.4498 188.074 74.8409 187.696 74.2522C187.243 73.5486 186.991 70.7883 186.298 71.8446" stroke="#3D7B80" stroke-width="4" stroke-linecap="round"/>
<path d="M193.36 72.1711C191.889 72.1711 190.437 71.485 188.921 71.8071C188.445 71.908 187.951 72.435 187.582 72.7709C187.157 73.1564 186.343 73.7131 186.426 73.7131" stroke="#3D7B80" stroke-width="4" stroke-linecap="round"/>
<path d="M65.6545 151.725C67.3848 151.158 69.2007 151.33 70.978 150.858C73.8552 150.094 76.8748 150.307 79.8182 150.307C83.002 150.307 86.1736 149.952 89.3693 149.952C92.2492 149.952 95.0903 150.793 97.979 150.642C114.393 149.779 130.787 148.889 147.253 148.889C152.863 148.889 158.442 148.535 164.03 148.535C170.971 148.535 177.849 147.471 184.786 147.471C197.971 147.471 211.092 148.135 224.259 147.136C230.113 146.692 236.182 146.762 242.054 146.762C246.916 146.762 251.745 146.408 256.622 146.408C261.385 146.408 266.07 145.969 270.766 145.167C272.696 144.837 274.821 144.935 276.685 144.458C277.723 144.192 281.578 144.546 282.2 143.749C282.655 143.166 285.316 143.572 286.006 143.572C287.756 143.572 288.08 144.077 289.119 145.521C291.94 149.444 293.03 153.605 294.827 158.105C295.667 160.212 296.226 162.352 296.902 164.506C297.943 167.825 299.841 170.523 301.687 173.447C302.48 174.701 303.446 175.921 304.147 177.228C304.56 177.997 304.588 178.918 305.031 179.65C305.553 180.511 306.193 181.188 306.415 182.21C306.47 182.464 307.479 185.226 307.376 185.322C306.532 186.099 301.858 185.433 300.88 185.322C290.793 184.173 280.859 184.607 270.747 184.691C260.862 184.774 255.672 184.691 245.783 184.691C241.495 184.691 233.748 185.15 229.47 185.498C224.469 185.903 218.486 186.02 213.507 186.464C203.127 187.389 192.633 185.113 181.884 186.031C174.141 186.692 167.022 186.464 159.304 186.385C152.638 186.385 150.466 186.353 146.849 186.385C142.431 186.424 137.727 186.385 133.532 186.109C124.747 186.464 117.774 186.464 109.932 186.464C106.232 186.464 102.09 187.022 98.44 186.385C94.4886 185.696 90.426 185.091 86.4097 185.046C79.9056 184.973 73.417 185.153 66.9613 185.046C61.9887 184.964 57.2886 185.344 52.4327 186.385C49.7924 186.951 47.1569 187.469 44.5534 187.173C41.9134 186.872 42.4849 183.756 43.5156 182.289C44.8779 180.35 47.0625 179.241 48.7044 177.602C51.2118 175.098 53.1954 172.32 55.2769 169.449C56.4967 167.766 64.8227 151.121 66.6922 152.079" stroke="#3D7B80" stroke-width="2.8" stroke-linecap="round"/>
<path d="M71.4048 156.382C71.0208 156.404 70.8448 156.706 70.6109 156.967C69.9649 157.686 69.2568 158.311 68.5341 158.958C67.8782 159.545 67.3301 160.266 66.7814 160.943C66.6217 161.141 66.3004 161.661 66.5237 161.132" stroke="#3D7B80" stroke-width="2.8" stroke-linecap="round"/>
<path d="M70.7757 156.542C72.9867 155.93 75.0311 155.759 77.3354 155.759C78.8688 155.759 80.3528 155.665 81.8763 155.536C82.4966 155.483 83.4628 155.225 84.0539 155.542C84.4688 155.764 84.8429 155.854 85.2851 156.008C85.546 156.099 85.821 156.465 86.0928 156.604C86.8801 157.008 84.9161 159.091 84.6896 159.475C84.3853 159.99 84.0338 161.387 83.3258 161.52C82.3934 161.695 81.3383 161.576 80.3936 161.576C78.7196 161.576 77.0598 161.577 75.3895 161.688C73.4824 161.813 71.5971 162.247 69.6903 162.247C69.3057 162.247 67.6115 162.036 67.4395 162.359" stroke="#3D7B80" stroke-width="2.8" stroke-linecap="round"/>
<path d="M65.4562 166.343C64.5158 167.121 63.9674 168.314 63.2172 169.28C62.6667 169.989 62.0294 170.605 61.4902 171.323" stroke="#3D7B80" stroke-width="2.8" stroke-linecap="round"/>
<path d="M65.0468 166.101C67.084 166.027 69.1092 165.712 71.151 165.712C73.3926 165.712 75.636 165.665 77.8752 165.575C78.1634 165.564 82.3984 165.136 82.3104 165.481C82.1127 166.258 81.722 166.968 81.5474 167.775C81.3542 168.667 81.2981 169.472 80.505 169.989C80.0172 170.306 79.6217 170.255 79.0537 170.255C77.972 170.255 77.061 170.529 76.0154 170.775C73.4621 171.375 70.6927 171.513 68.1124 171.034C66.6081 170.755 65.0208 170.935 63.5071 170.782C62.7841 170.709 62.1642 171.034 61.4902 171.034" stroke="#3D7B80" stroke-width="2.8" stroke-linecap="round"/>
<path d="M58.5148 174.311C58.2412 174.535 58.0766 174.881 57.8842 175.236C57.4952 175.955 56.9856 176.633 56.4885 177.184C55.9587 177.771 55.5469 178.393 55.1279 179.15C54.9273 179.513 54.6275 179.821 54.5488 180.287" stroke="#3D7B80" stroke-width="2.8" stroke-linecap="round"/>
<path d="M59.605 175.057C62.8959 175.057 66.1615 175.037 69.4433 174.774C71.1218 174.639 72.852 174.419 74.534 174.419C75.2847 174.419 76.0136 174.378 76.7604 174.32C77.5923 174.256 78.4354 174.547 79.2749 174.547C79.8899 174.547 80.4527 174.58 81.0359 174.774C81.3254 174.87 81.4605 174.955 81.111 175.128C80.5962 175.383 80.1963 175.745 79.7615 176.12C78.6956 177.039 77.7365 178.052 76.6783 178.948C76.3154 179.255 75.9378 179.691 75.5136 179.904C74.8641 180.231 73.8891 180.013 73.198 180.039C71.5093 180.103 69.864 180.287 68.169 180.287C66.8833 180.287 65.6351 180.079 64.3597 179.933C62.4076 179.708 60.3388 179.904 58.3719 179.904C57.1099 179.904 55.7819 179.777 54.5488 180.032" stroke="#3D7B80" stroke-width="2.8" stroke-linecap="round"/>
<path d="M89.2513 156.382C89.228 157.189 89.0554 157.983 88.8326 158.751C88.6725 159.303 88.3644 159.799 88.2598 160.367" stroke="#3D7B80" stroke-width="2.8" stroke-linecap="round"/>
<path d="M90.2585 156.707C92.1607 156.17 94.1641 155.519 96.1581 155.396C97.1276 155.336 98.0606 155.572 99.0231 155.605C99.504 155.621 98.6297 156.946 98.5737 157.069C98.2684 157.739 98.0164 158.412 97.8183 159.115C97.7761 159.265 97.7255 159.579 97.5841 159.685C97.268 159.923 97.4587 160.618 96.8612 160.672C95.4228 160.801 94.088 160.513 92.6419 160.813C91.6664 161.015 90.6895 161.192 89.6985 161.315C89.487 161.341 89.0926 161.444 89.3208 161.229" stroke="#3D7B80" stroke-width="2.8" stroke-linecap="round"/>
<path d="M106.108 154.39C105.101 155.59 104.375 157.011 103.731 158.402C103.357 159.211 102.996 160.097 102.284 160.719C101.878 161.074 101.15 161.862 101.15 160.907" stroke="#3D7B80" stroke-width="2.8" stroke-linecap="round"/>
<path d="M106.019 154.39C106.957 154.39 107.895 154.39 108.832 154.39C109.802 154.39 110.731 154.644 111.702 154.644C112.153 154.644 112.878 154.489 113.294 154.714C114.501 155.366 113.909 156.624 113.792 157.799C113.703 158.693 113.699 159.597 113.596 160.475C113.548 160.882 112.819 160.723 112.571 160.736C110.767 160.826 109.061 161.377 107.226 161.362C106.19 161.354 105.163 161.235 104.125 161.235" stroke="#3D7B80" stroke-width="2.8" stroke-linecap="round"/>
<path d="M118.005 154.39C117.702 156.109 117.298 157.777 117.085 159.529C117.053 159.789 116.976 160.567 117.035 160.318C117.135 159.899 117.205 159.458 117.293 159.035" stroke="#3D7B80" stroke-width="2.8" stroke-linecap="round"/>
<path d="M117.742 155.077C118.788 154.652 120.098 154.766 121.198 154.638C122.163 154.525 123.112 154.39 124.087 154.39C124.905 154.39 125.702 154.583 126.517 154.583C127.488 154.583 128.322 154.048 128.677 155.16C129.014 156.211 128.95 157.35 128.724 158.423C128.597 159.026 128.441 159.912 128.07 160.422C127.545 161.143 126.293 160.889 125.566 160.889C123.52 160.889 121.431 160.924 119.389 161.04C119.073 161.058 117.169 161.577 117.014 161.26" stroke="#3D7B80" stroke-width="2.8" stroke-linecap="round"/>
<path d="M131.887 154.39C131.887 155.9 131.887 157.352 131.887 158.848C131.887 159.242 131.887 161.286 131.887 159.878" stroke="#3D7B80" stroke-width="2.8" stroke-linecap="round"/>
<path d="M131.887 154.775C133.966 154.212 136.463 154.4 138.598 154.518C138.879 154.534 139.184 155.392 139.337 155.604C139.822 156.274 139.819 156.53 139.819 157.418C139.819 158.458 139.819 159.498 139.819 160.539C139.819 161.132 139.363 161.066 138.842 161.074C137.373 161.096 135.918 160.848 134.449 161.017C134.068 161.061 132.213 161.634 132.009 161.203" stroke="#3D7B80" stroke-width="2.8" stroke-linecap="round"/>
<path d="M142.793 155.386C142.793 155.53 142.793 157.338 142.793 157.671C142.793 158.899 142.793 160.128 142.793 161.363" stroke="#3D7B80" stroke-width="2.8" stroke-linecap="round"/>
<path d="M142.793 153.394C145.167 153.394 147.555 153.529 149.938 153.529C150.27 153.529 151.164 153.289 151.249 153.827C151.499 155.397 151.312 157.014 151.543 158.594C151.596 158.961 151.952 159.809 151.458 159.831C151.068 159.848 150.75 160.208 150.401 160.368C149.028 160.994 147.381 160.863 145.938 161.068C145.589 161.117 143.575 161.799 144.202 160.904" stroke="#3D7B80" stroke-width="2.8" stroke-linecap="round"/>
<path d="M154.691 153.394C155.706 155.374 155.683 157.364 155.683 159.371" stroke="#3D7B80" stroke-width="2.8" stroke-linecap="round"/>
<path d="M155.684 153.827C156.761 153.827 157.698 153.703 158.756 153.471C160.313 153.13 161.811 153.011 163.391 152.852C163.918 152.799 164.368 152.693 164.834 152.463C165.685 152.044 165.302 153.785 165.302 154.261C165.302 155.636 165.436 156.952 165.595 158.312C165.639 158.681 165.221 158.553 164.941 158.688C163.556 159.352 162.177 159.778 160.64 159.985C160.174 160.048 157.402 160.725 157.246 160.11" stroke="#3D7B80" stroke-width="2.8" stroke-linecap="round"/>
<path d="M168.572 153.394C169.26 155.627 169.399 157.828 169.399 160.12C169.399 160.5 169.371 160.894 169.399 161.274C169.43 161.713 169.51 160.401 169.564 159.964" stroke="#3D7B80" stroke-width="2.8" stroke-linecap="round"/>
<path d="M169.564 154.018C169.606 153.321 175.533 153.528 176.162 153.528C176.967 153.528 177.781 153.349 178.584 153.405C179.198 153.449 179.357 155.389 179.396 155.854C179.498 157.088 179.509 158.441 179.415 159.678C179.391 159.999 179.292 159.772 179.138 159.705C178.7 159.513 178.035 159.551 177.579 159.609C176.358 159.765 175.337 160.634 174.139 160.902C173.484 161.048 171.029 161.801 170.724 160.997" stroke="#3D7B80" stroke-width="2.8" stroke-linecap="round"/>
<path d="M182.467 153.394C182.467 155.351 182.467 157.307 182.467 159.264C182.467 159.334 182.26 160.625 183.445 160.32" stroke="#3D7B80" stroke-width="2.8" stroke-linecap="round"/>
<path d="M182.453 152.931C184.86 152.596 187.296 152.398 189.724 152.398C190.867 152.398 191.418 155.331 191.774 156.272C192.075 157.065 192.399 157.944 192.894 158.622C192.997 158.764 193.314 158.939 193.359 159.11C193.387 159.218 192.413 159.188 192.341 159.192C190.748 159.266 189.18 159.714 187.599 159.916C186.673 160.035 185.753 160.199 184.827 160.323C184.355 160.386 184.081 160.45 183.91 159.983" stroke="#3D7B80" stroke-width="2.8" stroke-linecap="round"/>
<path d="M196.334 153.394C197.11 154.744 197.734 156.164 198.002 157.661C198.05 157.928 198.317 160.34 198.317 158.933" stroke="#3D7B80" stroke-width="2.8" stroke-linecap="round"/>
<path d="M194.352 153.025C195.235 152.283 196.865 152.632 197.918 152.632C199.241 152.632 200.564 152.632 201.887 152.632C202.312 152.632 202.738 152.64 203.163 152.632C203.629 152.622 204.103 152.398 204.546 152.398C204.924 152.398 205.115 153.753 205.164 154.001C205.315 154.76 206.918 158.297 205.93 158.503C204.385 158.823 202.786 158.831 201.229 159.056C200.582 159.15 198.658 159.787 198.341 158.925" stroke="#3D7B80" stroke-width="2.8" stroke-linecap="round"/>
<path d="M209.225 153.394C209.642 154.739 209.868 156.023 209.996 157.42C210.02 157.688 210.094 158.251 210.216 158.374" stroke="#3D7B80" stroke-width="2.8" stroke-linecap="round"/>
<path d="M209.225 153.554C210.044 153.278 210.804 152.753 211.628 152.527C212.473 152.295 213.448 152.45 214.311 152.442C215.643 152.43 216.946 152.442 218.274 152.442C218.745 152.442 219.245 152.373 219.694 152.55C220.426 152.84 220.599 153.262 220.607 154.079C220.62 155.448 221.113 156.798 221.113 158.142C221.113 158.698 221.236 159.092 220.607 159.115C218.204 159.205 215.862 159.871 213.469 160.058C212.696 160.118 211.792 159.875 211.122 160.367" stroke="#3D7B80" stroke-width="2.8" stroke-linecap="round"/>
<path d="M224.096 153.394C224.414 155.052 224.827 156.706 225.087 158.374" stroke="#3D7B80" stroke-width="2.8" stroke-linecap="round"/>
<path d="M223.105 153.23C225.639 153.23 228.13 152.43 230.666 152.402C231.33 152.394 231.994 152.402 232.658 152.402C233.648 152.402 233.554 152.995 233.726 153.755C234.004 154.977 234.31 156.385 234.875 157.534C235.121 158.033 235.03 158.234 234.461 158.434C232.704 159.051 230.501 159.155 228.638 159.314C227.71 159.394 227.036 159.453 226.246 159.025" stroke="#3D7B80" stroke-width="2.8" stroke-linecap="round"/>
<path d="M237.977 152.398C238.6 153.932 238.938 155.595 239.458 157.175C239.638 157.724 239.96 159.16 239.96 157.818" stroke="#3D7B80" stroke-width="2.8" stroke-linecap="round"/>
<path d="M237.977 152.398C239.394 152.975 240.846 152.904 242.347 153.017C243.732 153.12 244.892 152.981 246.25 152.707C246.4 152.677 247.55 152.311 247.584 152.646C247.673 153.515 247.678 154.199 248.038 155.036C248.343 155.743 248.661 156.393 248.838 157.151C249.078 158.17 248.318 158.02 247.484 158.085C245.819 158.214 244.114 158.413 242.473 158.73C242.159 158.791 240.381 159.572 240.258 159.321" stroke="#3D7B80" stroke-width="2.8" stroke-linecap="round"/>
<path d="M251.857 152.398C252.097 152.481 252.177 152.956 252.249 153.162C252.623 154.22 252.898 155.308 253.215 156.384C253.256 156.523 254.121 159.129 253.747 158.158" stroke="#3D7B80" stroke-width="2.8" stroke-linecap="round"/>
<path d="M251.857 152.071C252.658 151.672 253.557 151.804 254.414 151.804C255.319 151.804 256.226 151.825 257.131 151.804C257.711 151.789 258.224 151.425 258.8 151.403C259.408 151.379 259.624 152.921 259.787 153.415C260.016 154.109 260.171 154.808 260.35 155.517C260.466 155.976 260.724 156.441 260.781 156.913C260.793 157.02 260.196 157.139 260.105 157.158C258.65 157.474 257.22 157.911 255.759 158.213C255.317 158.304 254.658 158.585 254.362 158.086" stroke="#3D7B80" stroke-width="2.8" stroke-linecap="round"/>
<path d="M262.766 151.402C263.529 152.965 264.159 154.447 264.444 156.124C264.476 156.314 264.749 158.088 264.749 157.06" stroke="#3D7B80" stroke-width="2.8" stroke-linecap="round"/>
<path d="M262.766 151.402C265.272 151.835 267.923 151.525 270.469 151.525C272.264 151.525 272.375 153.54 272.938 154.675C273.091 154.982 275.153 157.692 274.555 158.001C274.332 158.117 273.848 158.028 273.605 158.028C272.857 158.028 272.116 158.036 271.37 158.09C269.664 158.212 267.932 158.095 266.234 158.335C265.812 158.394 265.576 158.396 265.192 158.274" stroke="#3D7B80" stroke-width="2.8" stroke-linecap="round"/>
<path d="M275.654 152.328C276.175 152.328 276.349 152.244 276.57 152.696C277.096 153.775 277.455 154.915 278.006 155.983C278.055 156.077 278.585 157.1 278.569 156.846C278.492 155.602 277.239 154.392 276.52 153.413C276.511 153.399 275.156 151.73 276.007 151.649C276.889 151.565 277.674 151.432 278.485 151.078C279.28 150.73 280.141 150.856 281.005 150.843C281.999 150.828 282.956 150.693 283.892 150.411C284.11 150.346 284.267 150.941 284.3 151.046C284.908 152.93 285.719 154.57 286.934 156.211C287.053 156.373 287.857 157.125 287.427 157.125C286.823 157.125 286.22 157.125 285.617 157.125C283.906 157.125 282.193 157.095 280.484 157.182C279.965 157.209 278.177 157.571 277.809 157.24" stroke="#3D7B80" stroke-width="2.8" stroke-linecap="round"/>
<path d="M287.318 161.363C282.374 161.363 277.44 161.736 272.489 161.736C270.838 161.736 269.198 161.861 267.55 161.861C266.485 161.861 265.54 162.206 264.464 162.013C263.829 161.9 264.138 163.497 264.134 163.911C264.127 164.488 264.004 165.009 263.913 165.573C263.879 165.783 263.709 166.193 263.768 166.404C263.853 166.702 264.724 167.035 265.001 167.097C265.347 167.174 265.613 167.427 265.924 167.588C266.554 167.915 267.226 168.13 267.936 168.191C272.354 168.567 276.823 168.139 281.202 167.664C283.3 167.437 285.481 167.595 287.594 167.595C288.383 167.595 289.102 167.608 289.867 167.844C290.534 168.051 290.601 167.004 290.473 166.542C290.204 165.578 289.11 164.761 288.51 163.994C288.036 163.387 287.65 162.654 287.318 161.986" stroke="#3D7B80" stroke-width="2.8" stroke-linecap="round"/>
<path d="M276.143 172.672C276.909 173.706 276.12 175.564 275.953 176.652C275.92 176.867 275.586 179.138 275.729 179.168C276.442 179.317 277.38 179.289 278.109 179.289C280.476 179.289 282.697 178.959 285.032 178.68C286.514 178.503 288.152 178.49 289.65 178.49C291.513 178.49 293.337 178.262 295.197 178.262C296.431 178.262 297.665 178.376 298.892 178.376C299.163 178.376 299.711 178.514 299.306 178.262C297.341 177.038 297.725 174.667 296.641 172.957C296.301 172.421 295.752 172.085 295.305 171.645C294.835 171.183 294.512 171.305 293.888 171.474C292.285 171.909 290.642 172.216 288.972 172.216C286.994 172.216 285.102 172.022 283.141 171.899C280.666 171.744 278.136 171.874 275.654 171.874" stroke="#3D7B80" stroke-width="2.8" stroke-linecap="round"/>
<path d="M269.254 172.411C266.089 172.717 263.001 172.901 259.823 172.901C259.604 172.901 259.381 172.888 259.163 172.901C258.986 172.912 258.867 174.177 258.807 174.371C258.683 174.773 257.342 177.57 257.976 177.897C258.337 178.083 259.091 177.917 259.48 177.931C260.944 177.984 262.398 178.14 263.865 178.176C265.047 178.205 266.223 178.331 267.407 178.285C268.358 178.248 269.295 177.92 270.23 177.747C270.344 177.726 270.79 177.737 270.678 177.652C270.392 177.435 270.38 176.318 270.322 175.991C270.128 174.901 270.095 173.859 270.085 172.751C270.079 172.122 269.866 172.259 269.61 172.656" stroke="#3D7B80" stroke-width="2.8" stroke-linecap="round"/>
<path d="M260.781 166.613C260.435 165.916 260.21 165.126 259.95 164.397C259.734 163.79 259.628 163.203 259.621 162.563C259.618 162.33 259.717 161.862 259.549 161.657C258.98 160.961 256.428 161.701 255.745 161.827C254.507 162.056 253.196 161.991 252.034 162.488C251.671 162.644 251.187 162.563 250.795 162.563C249.831 162.563 248.823 162.277 247.844 162.202C246.504 162.1 246.984 163.138 246.984 164.036C246.984 165.59 246.984 167.144 246.984 168.699C246.984 169.811 253.413 169.122 254.162 169.094C255.617 169.039 257.076 169.067 258.532 169.067C258.994 169.067 259.018 168.993 259.105 168.576" stroke="#3D7B80" stroke-width="2.8" stroke-linecap="round"/>
<path d="M242.295 162.359C243.597 162.359 239.69 162.422 238.394 162.548C237.141 162.67 235.927 162.846 234.668 162.846C234.414 162.846 234.68 163.328 234.707 163.475C234.864 164.352 234.843 165.274 234.83 166.161C234.816 167.12 234.636 168.109 234.253 168.983C234.088 169.359 233.998 169.713 234.013 170.127C234.03 170.575 236.961 170.134 237.286 170.1C239.096 169.911 240.89 170.154 242.697 170.154C243.09 170.154 242.879 166.84 242.879 166.473C242.879 165.133 243.248 162.967 241.479 162.967" stroke="#3D7B80" stroke-width="2.8" stroke-linecap="round"/>
<path d="M222.953 163.145C224.528 163.023 226.054 162.522 227.642 162.447C228.172 162.422 230.045 162.113 230.045 162.819C230.045 164.545 230.045 166.271 230.045 167.998C230.045 168.322 230.009 168.305 229.709 168.311C229.03 168.325 228.333 168.57 227.694 168.78C225.683 169.444 223.48 169.25 221.396 169.25C220.762 169.25 220.125 169.236 219.491 169.25C219.395 169.252 219.034 169.446 219.168 169.224C219.99 167.857 220.242 166.085 220.453 164.508C220.473 164.362 220.491 163.222 220.628 163.497" stroke="#3D7B80" stroke-width="2.8" stroke-linecap="round"/>
<path d="M206.906 164.172C204.925 164.595 208.307 164.362 208.734 164.309C209.137 164.259 212.986 163.304 213.013 163.491C213.208 164.841 213.138 166.211 213.138 167.58C213.138 168.313 213.294 169.292 213.068 169.995C212.969 170.306 212.404 170.17 212.182 170.17C210.389 170.17 208.596 170.17 206.802 170.17C205.852 170.17 204.91 170.114 203.984 170.298C203.07 170.48 203.266 169.769 203.361 168.935C203.508 167.65 203.515 166.334 203.763 165.066C203.877 164.482 204.087 163.944 204.164 163.355" stroke="#3D7B80" stroke-width="2.8" stroke-linecap="round"/>
<path d="M192.233 163.262C192.175 163.262 191.139 163.348 191.156 163.365C191.267 163.479 191.728 163.395 191.848 163.395C192.498 163.395 193.148 163.404 193.797 163.365C195.448 163.268 197.302 163.001 198.876 162.395C199.464 162.169 199.274 163.053 199.274 163.484C199.274 164.848 199.368 166.26 199.248 167.618C199.157 168.643 198.951 169.346 198.292 169.989C197.992 170.283 197.735 170.345 197.343 170.323C196.235 170.26 195.123 170.02 194.022 169.863C192.556 169.654 190.847 169.383 189.412 169.96C188.271 170.418 188.38 170.024 188.431 168.774C188.48 167.558 188.755 166.334 189.117 165.195C189.209 164.904 189.688 163.859 189.348 163.662" stroke="#3D7B80" stroke-width="2.8" stroke-linecap="round"/>
<path d="M157.666 163.355V164.351" stroke="#3D7B80" stroke-width="2.8" stroke-linecap="round"/>
<path d="M157.274 163.355C159.296 164.283 161.28 164.088 163.468 164.088C164.67 164.088 165.872 164.21 167.064 164.21C167.168 164.21 167.576 164.136 167.581 164.318C167.595 164.828 167.388 165.441 167.346 165.96C167.317 166.33 167.162 169.75 167.043 169.773C166.943 169.793 166.553 169.554 166.437 169.529C165.833 169.399 165.169 169.457 164.563 169.536C162.295 169.831 160.072 170.362 157.77 170.309C157.474 170.302 155.567 170.469 155.689 169.895C155.943 168.702 156.644 167.625 156.943 166.435C157.166 165.547 157.216 164.63 157.274 163.721" stroke="#3D7B80" stroke-width="2.8" stroke-linecap="round"/>
<path d="M173.137 163.355C175.159 164.283 177.144 164.088 179.331 164.088C180.534 164.088 181.735 164.209 182.927 164.209C183.031 164.209 183.439 164.136 183.444 164.318C183.459 164.828 183.252 165.441 183.21 165.96C183.18 166.33 183.025 169.75 182.907 169.773C182.807 169.793 182.417 169.554 182.301 169.529C181.696 169.399 181.033 169.457 180.427 169.536C178.158 169.831 175.936 170.362 173.633 170.309C173.337 170.302 171.43 170.47 171.553 169.895C171.807 168.702 172.508 167.625 172.806 166.435C173.029 165.547 173.079 164.63 173.137 163.721" stroke="#3D7B80" stroke-width="2.8" stroke-linecap="round"/>
<path d="M142.704 164.968C144.343 164.336 146.685 164.298 148.423 164.385C149.589 164.444 150.642 164.815 151.786 164.941C152.965 165.071 152.776 165.141 152.505 166.173C152.295 166.974 152.102 167.786 152.045 168.611C152.026 168.888 152.216 170.089 151.988 170.304C151.896 170.39 151.234 170.202 151.111 170.182C150.363 170.061 149.647 169.965 148.883 169.965C146.619 169.965 144.353 170.087 142.086 170.087C141.132 170.087 140.556 170.323 140.922 169.302C141.44 167.856 141.54 166.242 141.54 164.724" stroke="#3D7B80" stroke-width="2.8" stroke-linecap="round"/>
<path d="M127.595 165.399C128.924 165.352 130.19 165.309 131.54 165.399C132.416 165.458 133.275 165.515 134.155 165.515C134.533 165.515 134.949 165.4 135.149 165.746C135.661 166.635 135.941 167.742 135.827 168.747C135.748 169.446 135.716 169.539 135.485 170.206C135.457 170.287 135.181 171.22 135.107 171.067C134.155 171.125 132.119 170.959 131.204 171.067C129.691 171.246 127.968 171.509 126.462 171.125C125.881 170.977 125.916 170.733 125.958 170.206C126.024 169.384 126.524 168.519 126.742 167.713C126.906 167.102 127.091 166.496 127.091 165.862" stroke="#3D7B80" stroke-width="2.8" stroke-linecap="round"/>
<path d="M114.079 165.616C115.594 165.083 116.877 165.483 118.447 165.616C119.147 165.675 119.837 165.734 120.54 165.734C120.82 165.734 121.073 165.691 121.283 165.91C121.478 166.111 121.73 166.052 121.945 166.203C122.088 166.304 121.622 166.856 121.567 166.999C121.229 167.882 121.023 168.866 120.823 169.792C120.697 170.379 120.666 170.998 120.596 171.594C120.595 171.609 120.592 172.102 120.521 172.168C120.348 172.328 119.473 172.236 119.273 172.252C118.07 172.35 116.86 172.311 115.654 172.311C114.111 172.311 112.849 171.724 111.305 172.011C110.951 172.077 110.581 172.096 110.221 172.076C109.985 172.063 110.103 171.08 110.108 170.902C110.135 169.829 110.55 168.846 111.028 167.913C111.198 167.581 111.465 166.673 111.809 166.673" stroke="#3D7B80" stroke-width="2.8" stroke-linecap="round"/>
<path d="M99.1229 166.045C100.194 165.028 102.265 165.421 103.569 165.421C104.449 165.421 105.329 165.421 106.209 165.421C106.456 165.421 106.792 165.34 106.985 165.546C107.173 165.746 107.087 166.013 107.031 166.26C106.781 167.349 106.322 168.406 105.929 169.442C105.648 170.182 105.344 171.52 104.801 172.097C104.252 172.681 103.075 171.942 102.519 171.8C100.94 171.394 99.2789 171.618 97.6758 171.411C97.4285 171.38 96.1288 171.361 96.1959 170.967C96.2895 170.421 96.6525 169.884 96.8676 169.387C97.3594 168.249 97.8117 167.109 98.1841 165.92" stroke="#3D7B80" stroke-width="2.8" stroke-linecap="round"/>
<path d="M86.6794 165.347C86.2973 165.347 86.0716 165.422 86.5915 165.574C87.3818 165.806 88.2308 165.909 89.0511 165.916C90.1152 165.926 91.1829 165.952 92.2386 165.802C92.5997 165.751 93.3573 165.509 93.6819 165.802C94.3597 166.414 94.3381 166.763 93.8827 167.651C93.4623 168.47 93.0792 169.309 92.6655 170.132C92.5622 170.338 92.2925 171.192 92.0381 171.265C90.9168 171.589 89.7012 171.45 88.5554 171.784C87.8849 171.98 86.6652 172.52 85.945 172.24C85.6653 172.132 84.3299 171.671 84.3138 171.531C84.1904 170.475 84.6981 169.614 85.0979 168.676C85.2655 168.283 86.0674 165.574 86.2276 165.574" stroke="#3D7B80" stroke-width="2.8" stroke-linecap="round"/>
<path d="M86.1941 175.864C85.7273 175.808 84.6176 178.169 84.3202 178.654C83.9984 179.178 83.7018 179.704 83.3247 180.194C83.1271 180.451 84.3206 180.096 84.5416 180.067C86.2852 179.838 87.9648 179.527 89.7335 179.655C90.8197 179.735 91.8973 179.744 92.9866 179.744C94.0722 179.744 95.4129 179.537 96.4088 179.884C97.479 180.256 98.0157 179.729 98.7899 178.945C99.1773 178.553 99.401 175.408 98.7769 175.408C98.1919 175.408 97.6183 175.516 97.0333 175.522C95.5927 175.537 94.1689 175.307 92.7328 175.307C91.1757 175.307 89.6524 175.641 88.1198 175.864C87.7806 175.914 86.1321 175.949 86.8966 176.321" stroke="#3D7B80" stroke-width="2.8" stroke-linecap="round"/>
<path d="M105.39 175.44C105.374 176.967 105.252 178.449 104.81 179.902C104.784 179.988 104.292 181.272 104.36 180.719C104.514 179.48 104.41 178.24 104.458 176.992C104.517 175.461 104.737 175.452 105.95 175.44C107.173 175.428 108.391 175.276 109.616 175.312C110.767 175.346 111.896 175.575 113.048 175.575C113.147 175.575 113.948 175.456 114.038 175.605C114.069 175.655 113.674 176.81 113.654 176.94C113.507 177.883 113.309 178.81 113.127 179.744C113.068 180.042 113.044 180.584 112.723 180.674C112.132 180.84 111.454 180.683 110.847 180.779C109.857 180.935 108.865 181.062 107.864 181.101C106.897 181.14 105.939 181.118 104.973 181.214C104.811 181.23 103.823 181.412 104.217 181.109" stroke="#3D7B80" stroke-width="2.8" stroke-linecap="round"/>
<path d="M118.006 176.303C118.006 177.525 118.006 179.154 118.006 180.404C118.006 180.936 118.006 181.848 118.006 180.805" stroke="#3D7B80" stroke-width="2.8" stroke-linecap="round"/>
<path d="M118.691 175.87C120.529 175.457 122.394 175.417 124.271 175.364C125.07 175.342 125.989 175.235 126.782 175.386C127.115 175.45 127.463 175.524 127.787 175.621C128.15 175.73 127.667 178.159 127.61 178.406C127.504 178.868 127.295 181.116 126.877 181.254C126.498 181.38 126.038 181.466 125.642 181.504C124.291 181.632 122.934 181.411 121.582 181.625C120.543 181.79 119.537 182.178 118.487 182.266C117.908 182.314 117.966 182.245 118.08 181.767" stroke="#3D7B80" stroke-width="2.8" stroke-linecap="round"/>
<path d="M133.319 180.168C133.693 179.031 133.358 177.973 133.579 176.81C133.579 175.045 133.689 174.369 135.715 174.369C137.397 174.369 138.912 174.024 140.578 174.245H148.801H158.555C162.343 173.74 166.285 174.34 170.102 173.931C174.332 173.477 178.677 173.768 182.92 173.458C185.02 173.304 186.07 173.234 189.394 173.458C195.87 173.738 196.043 173.458 199.893 173.458C201.887 173.657 203.742 173.233 205.842 173.458C206.938 173.615 207.684 173.294 208.638 173.753C209.085 173.968 208.962 175.098 209.158 175.477C209.453 176.047 209.704 176.939 209.742 177.57C209.809 178.669 210.181 179.72 210.181 180.839C210.181 181.087 210.372 182.187 209.864 182.241C209.042 182.327 208.133 182.253 207.323 182.152C205.468 181.92 202.628 181.541 200.767 181.55C198.082 181.563 196.347 181.595 193.665 181.481C187.422 181.216 181.077 180.923 174.827 180.893C168.028 180.861 161.257 180.164 154.463 180.285C150.882 180.348 147.345 180.846 143.769 180.887L143.699 180.887C140.609 180.922 137.493 180.957 134.456 181.481C134.331 181.503 132.944 181.806 132.889 181.55C132.811 181.187 133.209 180.505 133.319 180.168Z" stroke="#3D7B80" stroke-width="2.8" stroke-linecap="round"/>
<path d="M215.655 174.15C216.034 174.741 215.872 175.871 215.969 176.55C216.076 177.304 216.157 178.055 216.157 178.816C216.157 179.109 216.169 179.005 216.15 178.756C216.085 177.91 215.853 177.032 215.648 176.209C215.61 176.053 215.096 175.111 215.182 175.019C215.501 174.678 216.577 174.689 216.979 174.658C218.173 174.566 219.419 174.611 220.593 174.37C221.764 174.131 222.83 173.496 224.013 173.321C224.935 173.185 224.859 175.251 225.002 175.781C225.246 176.683 225.539 177.531 225.908 178.388C225.99 178.579 226.16 178.985 226.033 179.204C225.852 179.516 225.144 179.611 224.842 179.685C223.479 180.018 222.017 179.986 220.621 180.1C219.516 180.189 218.407 180.166 217.299 180.166C216.946 180.166 216.109 180.092 215.906 180.287" stroke="#3D7B80" stroke-width="2.8" stroke-linecap="round"/>
<path d="M231.037 174.311C231.441 176.165 232.029 178.176 232.029 180.075C232.029 181.119 231.581 178.02 231.321 176.998" stroke="#3D7B80" stroke-width="2.8" stroke-linecap="round"/>
<path d="M230.045 173.995C230.167 173.655 231.804 173.859 232.05 173.859C234.079 173.859 236.05 173.347 238.066 173.315C239.541 173.292 240.101 174.621 240.461 175.991C240.749 177.087 240.951 178.185 240.951 179.324C240.951 179.802 240.012 179.574 239.711 179.574C237.899 179.574 236.185 179.798 234.394 180.05C233.96 180.111 232.382 180.59 232.382 179.982" stroke="#3D7B80" stroke-width="2.8" stroke-linecap="round"/>
<path d="M242.936 173.854C243.09 174.777 243.386 175.543 243.705 176.406C244.063 177.375 244.177 178.513 244.272 179.546C244.401 180.944 244.511 176.708 244.265 175.328C244.167 174.776 243.959 174.231 243.914 173.67C243.866 173.061 244.658 173.409 245.001 173.458C247.173 173.764 249.358 173.524 251.53 173.406C251.923 173.385 252.014 176.459 252.07 176.751C252.177 177.305 253.113 178.693 252.779 179.238C252.591 179.543 252.293 179.717 251.969 179.795C250.583 180.125 249.017 180.122 247.607 180.176C246.462 180.221 244.614 180.509 243.543 179.927" stroke="#3D7B80" stroke-width="2.8" stroke-linecap="round"/>
<path d="M125.938 196.223C123.432 204.531 121.061 212.902 118.138 221.092C117.286 223.479 116.367 225.899 115.031 228.096" stroke="#3D7B80" stroke-width="4" stroke-linecap="round"/>
<path d="M126.315 196.286C124.422 195.91 130.161 195.94 132.087 195.79C136.123 195.473 139.974 194.662 144.037 194.662C150.154 194.662 156.185 195.474 162.328 195.474C173.418 195.474 184.463 195.749 195.546 195.451C202.305 195.27 209.022 195.068 215.79 195.068C217.546 195.068 223.865 193.627 224.469 194.527C226.096 196.95 227.051 200.059 228.559 202.6C230.527 205.918 232.782 209.111 234.648 212.478C237.133 216.964 241.266 221.483 244.918 225.108" stroke="#3D7B80" stroke-width="4" stroke-linecap="round"/>
</svg>