<svg width="110" height="140" shape-rendering="crispEdges" viewBox="0 0 110 137" fill="none" xmlns="http://www.w3.org/2000/svg">
<path d="M50.4746 27C50.4746 40.9643 47.9334 62.0777 50.4764 76" stroke="#3D7B80" stroke-width="4" stroke-linecap="round"/>
<path d="M50.418 29C50.418 2 26.138 3.81989 15.3144 3.18321C11.1282 2.93696 7.1769 3.68014 3.32251 2.09304C0.490396 0.926871 3.04574 11.0882 3.32251 12.1953C6.19417 23.6819 17.7079 36.8951 30.0681 37.1239C38.337 37.2771 43.189 35.609 50.418 33.1993" stroke="#3D7B80" stroke-width="4" stroke-linecap="round"/>
<path d="M50.418 33.1994C44.4704 27.2517 37.4109 23.2197 30.7949 18.8091" stroke="#3D7B80" stroke-width="4" stroke-linecap="round"/>
<path d="M51.8516 33.8892C51.8516 31.9616 52.9051 29.9283 53.961 28.3616C56.621 24.4145 58.2342 20.9189 61.5 17.5C64.1304 14.7463 69.29 12.0917 72.9459 10.7779C75.7245 9.77929 78.6107 8.63759 81.5 8.5C84.5062 8.35685 87.6471 8.77178 90.6528 9.3459C92.1738 9.63644 93.7247 10.2194 95.2104 10.6701C97.7119 11.429 100.096 12.1129 102.447 13.2568C103.576 13.806 105.174 14.7658 106.45 14.7658" stroke="#3D7B80" stroke-width="4" stroke-linecap="round"/>
<path d="M107.28 15.0427C107.28 17.0894 104.8 18.4201 103.477 19.6927C99.4853 23.5342 95.789 28.0333 90.8054 30.6248C83.5583 34.3933 76.5338 37.6349 68.2175 38.0309C66.4667 38.1143 64.1579 38.3857 62.4435 37.9231C60.6498 37.4391 58.941 36.5049 57.1469 36.1062C55.9825 35.8475 53.5218 34.7292 52.6816 33.889" stroke="#3D7B80" stroke-width="4" stroke-linecap="round"/>
<path d="M52.6816 33.8892C56.6169 30.3116 61.0436 27.843 66.0157 26.1135C68.3974 25.2851 70.4304 23.9777 72.6981 22.9263C74.1137 22.27 76.0779 22.2641 77.3481 21.4174" stroke="#3D7B80" stroke-width="4" stroke-linecap="round"/>
<path d="M87.6976 83.5334C88.5933 85.5184 89.7188 88.2031 89.9064 89.3537C90.8506 91.9277 90.5591 99.3656 90.5591 102.125C90.5591 104.387 90.7164 106.702 90.3332 108.938C89.9412 111.224 89.2751 113.408 88.7518 115.661C87.261 122.078 83.0158 127.844 77.0547 130.313C73.6139 131.738 70.121 133.363 66.4621 134.111C61.4335 135.139 56.128 135.048 51.025 134.932C45.2342 134.8 37.5709 135.468 32.2445 133.077C28.5912 131.437 25.2821 130.041 21.8891 127.899C17.1627 124.916 12.0737 119.141 10.5119 113.095C9.68031 109.875 10.0879 106.064 10.1856 102.779C10.2799 99.6072 10.4354 96.3592 11.1394 93.2588C12.4908 87.3077 15.257 82.4818 19.1216 77.8624C21.4599 75.0674 23.637 72.1802 26.8652 70.3952C31.7174 67.7122 37.7533 66.1863 43.1809 65.4683C50.6048 64.4861 58.5516 65.0721 65.7844 67.0079C71.6902 68.5886 76.4816 71.3773 80.9454 75.6043C82.6061 77.1769 84.1907 78.8497 85.6769 80.5953C86.4114 81.458 87.3167 82.4194 87.6976 83.5334Z" stroke="#3D7B80" stroke-width="4" stroke-linecap="round"/>
<path d="M54.0648 118.33C53.8479 118.414 53.6473 118.646 53.4478 118.789C52.5957 119.401 51.691 119.858 50.7891 120.28C49.1848 121.029 47.3667 120.991 45.6477 120.512C45.1165 120.364 44.534 120.215 44.0297 119.784C43.6215 119.436 43.2235 119.03 42.8215 118.656C42.6352 118.483 42.4171 118.174 42.2168 118.086" stroke="#3D7B80" stroke-width="4" stroke-linecap="round"/>
<path d="M58 104C58.6487 104.625 59.5001 105.044 60.2321 105.503C61.2753 106.157 62.4953 106.79 63.6813 106.9C64.6818 106.993 65.9573 107.113 66.9492 106.782C67.2998 106.664 67.5588 106.655 67.9228 106.576C68.3082 106.491 68.5869 106.133 69 106.133" stroke="#3D7B80" stroke-width="4" stroke-linecap="round"/>
<path d="M28 104C28.5897 104.417 29.3637 104.696 30.0292 105.002C30.9775 105.438 32.0867 105.86 33.1648 105.933C34.0744 105.995 35.2339 106.076 36.1356 105.854C36.4544 105.776 36.6898 105.77 37.0207 105.717C37.3711 105.661 37.6244 105.422 38 105.422" stroke="#3D7B80" stroke-width="4" stroke-linecap="round"/>
</svg>
