<svg width="109" height="137" viewBox="0 0 109 137" fill="none" xmlns="http://www.w3.org/2000/svg">
<path d="M50.334 26.9182C50.334 40.8825 48.7717 55.1777 51.3161 69.1C51.6007 70.6574 50.3133 74.1849 52.8594 74.9182" stroke="#3D7B80" stroke-width="3" stroke-linecap="round"/>
<path d="M50.2774 23.96C50.2774 10.3683 25.9974 3.73804 15.1738 3.10136C10.9876 2.85511 7.03628 3.59829 3.18188 2.01119C0.349771 0.845023 2.90512 11.0064 3.18188 12.1135C6.05354 23.6001 17.5673 36.8132 29.9275 37.0421C38.1963 37.1952 43.0484 35.5271 50.2774 33.1175" stroke="#3D7B80" stroke-width="3" stroke-linecap="round"/>
<path d="M50.2774 33.1175C44.3298 27.1699 37.2702 23.1379 30.6543 18.7272" stroke="#3D7B80" stroke-width="3" stroke-linecap="round"/>
<path d="M51.7109 33.8074C51.7109 31.8798 52.7645 29.8465 53.8204 28.2797C56.4804 24.3327 60.2856 21.1053 63.5515 17.6864C66.1818 14.9327 69.1494 12.0098 72.8052 10.696C75.5838 9.69746 78.446 9.81739 81.3353 9.6798C84.3415 9.53665 87.5064 8.68995 90.5121 9.26407C92.0332 9.5546 93.584 10.1375 95.0697 10.5882C97.5713 11.3471 99.955 12.031 102.306 13.175C103.435 13.7242 105.033 14.6839 106.31 14.6839" stroke="#3D7B80" stroke-width="3" stroke-linecap="round"/>
<path d="M107.14 14.9609C107.14 17.0076 104.659 18.3383 103.337 19.6109C99.3446 23.4523 95.6484 27.9515 90.6647 30.543C83.4176 34.3115 76.3932 37.5531 68.0769 37.9491C66.326 38.0325 64.0173 38.3039 62.3029 37.8413C60.5092 37.3573 58.8004 36.4231 57.0062 36.0244C55.8419 35.7657 53.3812 34.6474 52.541 33.8072" stroke="#3D7B80" stroke-width="3" stroke-linecap="round"/>
<path d="M52.541 33.8073C56.4763 30.2298 60.903 27.7611 65.8751 26.0317C68.2568 25.2033 70.2898 23.8958 72.5575 22.8444C73.973 22.1882 75.9373 22.1823 77.2075 21.3355" stroke="#3D7B80" stroke-width="3" stroke-linecap="round"/>
<path d="M87.5569 83.4516C88.4527 85.4365 89.5782 88.1213 89.7658 89.2719C90.71 91.8459 90.4184 99.2838 90.4184 102.043C90.4184 104.305 90.5758 106.62 90.1925 108.856C89.8006 111.142 89.1344 113.326 88.6112 115.579C87.1203 121.996 82.8752 127.762 76.9141 130.231C73.4732 131.656 69.9804 133.281 66.3215 134.029C61.2929 135.057 55.9874 134.966 50.8843 134.85C45.0936 134.718 37.4303 135.386 32.1038 132.995C28.4505 131.355 25.1415 129.959 21.7485 127.817C17.0221 124.834 11.9331 119.059 10.3713 113.013C9.53968 109.793 9.94726 105.982 10.045 102.697C10.1393 99.5254 10.2948 96.2774 10.9988 93.177C12.3502 87.2259 15.1163 82.3999 18.9809 77.7806C21.3192 74.9856 23.4964 72.0983 26.7246 70.3133C31.5768 67.6303 37.6127 66.1045 43.0403 65.3865C50.4642 64.4043 58.411 64.9903 65.6437 66.9261C71.5496 68.5068 76.3409 71.2955 80.8047 75.5224C82.4655 77.0951 84.0501 78.7678 85.5363 80.5134C86.2708 81.3761 87.176 82.3375 87.5569 83.4516Z" stroke="#3D7B80" stroke-width="3" stroke-linecap="round"/>
<path d="M53.9242 118.248C53.7073 118.332 53.5067 118.564 53.3072 118.707C52.455 119.319 51.5504 119.777 50.6484 120.198C49.0442 120.947 47.2261 120.909 45.507 120.43C44.9759 120.282 44.3934 120.133 43.8891 119.702C43.4808 119.354 43.0829 118.948 42.6809 118.574C42.4946 118.401 42.2765 118.092 42.0762 118.005" stroke="#3D7B80" stroke-width="3" stroke-linecap="round"/>
<path d="M57.8594 103.918C58.5081 104.543 59.3595 104.962 60.0915 105.421C61.1347 106.075 62.3547 106.708 63.5406 106.818C64.5412 106.911 65.8166 107.032 66.8085 106.7C67.1592 106.582 67.4181 106.574 67.7822 106.494C68.1676 106.41 68.4462 106.051 68.8594 106.051" stroke="#3D7B80" stroke-width="3" stroke-linecap="round"/>
<path d="M27.8594 103.918C28.4491 104.335 29.2231 104.614 29.8886 104.92C30.8369 105.356 31.9461 105.778 33.0242 105.852C33.9337 105.913 35.0932 105.994 35.995 105.773C36.3137 105.694 36.5492 105.688 36.8801 105.635C37.2305 105.579 37.4838 105.34 37.8594 105.34" stroke="#3D7B80" stroke-width="3" stroke-linecap="round"/>
</svg>
