<svg width="6" height="178" viewBox="0 0 6 178" fill="none" xmlns="http://www.w3.org/2000/svg">
<path d="M3 177.887L5.88675 175L3 172.113L0.113249 175L3 177.887ZM2.5 0V1.50862H3.5V0L2.5 0ZM2.5 4.52586V7.5431H3.5V4.52586H2.5ZM2.5 10.5603V13.5776H3.5V10.5603H2.5ZM2.5 16.5948V19.6121H3.5L3.5 16.5948H2.5ZM2.5 22.6293V25.6466H3.5V22.6293H2.5ZM2.5 28.6638L2.5 31.681H3.5L3.5 28.6638H2.5ZM2.5 34.6983L2.5 37.7155H3.5V34.6983H2.5ZM2.5 40.7328L2.5 43.75H3.5L3.5 40.7328H2.5ZM2.5 46.7673L2.5 49.7845H3.5L3.5 46.7673H2.5ZM2.5 52.8017L2.5 55.819H3.5L3.5 52.8017H2.5ZM2.5 58.8362L2.5 61.8535H3.5L3.5 58.8362H2.5ZM2.5 64.8707L2.5 67.8879H3.5V64.8707H2.5ZM2.5 70.9052L2.5 73.9224H3.5L3.5 70.9052H2.5ZM2.5 76.9397V79.9569H3.5V76.9397H2.5ZM2.5 82.9742V85.9914H3.5L3.5 82.9742H2.5ZM2.5 89.0086V92.0259H3.5V89.0086H2.5ZM2.5 95.0431V98.0604H3.5V95.0431H2.5ZM2.5 101.078V104.095H3.5V101.078H2.5ZM2.5 107.112V110.129H3.5V107.112H2.5ZM2.5 113.147V116.164H3.5V113.147H2.5ZM2.5 119.181V122.198H3.5L3.5 119.181H2.5ZM2.5 125.216V128.233H3.5V125.216H2.5ZM2.5 131.25L2.5 134.267H3.5L3.5 131.25H2.5ZM2.5 137.285V140.302H3.5V137.285H2.5ZM2.5 143.319L2.5 146.336H3.5L3.5 143.319H2.5ZM2.5 149.353L2.5 152.371H3.5L3.5 149.353H2.5ZM2.5 155.388L2.5 158.405H3.5L3.5 155.388H2.5ZM2.5 161.422L2.5 164.44H3.5L3.5 161.422H2.5ZM2.5 167.457L2.5 170.474H3.5L3.5 167.457H2.5ZM2.5 173.491V175H3.5V173.491H2.5ZM3 177.887L5.88675 175L3 172.113L0.113249 175L3 177.887ZM2.5 0V1.50862H3.5V0L2.5 0ZM2.5 4.52586V7.5431H3.5V4.52586H2.5ZM2.5 10.5603V13.5776H3.5V10.5603H2.5ZM2.5 16.5948V19.6121H3.5L3.5 16.5948H2.5ZM2.5 22.6293V25.6466H3.5V22.6293H2.5ZM2.5 28.6638L2.5 31.681H3.5L3.5 28.6638H2.5ZM2.5 34.6983L2.5 37.7155H3.5V34.6983H2.5ZM2.5 40.7328L2.5 43.75H3.5L3.5 40.7328H2.5ZM2.5 46.7673L2.5 49.7845H3.5L3.5 46.7673H2.5ZM2.5 52.8017L2.5 55.819H3.5L3.5 52.8017H2.5ZM2.5 58.8362L2.5 61.8535H3.5L3.5 58.8362H2.5ZM2.5 64.8707L2.5 67.8879H3.5V64.8707H2.5ZM2.5 70.9052L2.5 73.9224H3.5L3.5 70.9052H2.5ZM2.5 76.9397V79.9569H3.5V76.9397H2.5ZM2.5 82.9742V85.9914H3.5L3.5 82.9742H2.5ZM2.5 89.0086V92.0259H3.5V89.0086H2.5ZM2.5 95.0431V98.0604H3.5V95.0431H2.5ZM2.5 101.078V104.095H3.5V101.078H2.5ZM2.5 107.112V110.129H3.5V107.112H2.5ZM2.5 113.147V116.164H3.5V113.147H2.5ZM2.5 119.181V122.198H3.5L3.5 119.181H2.5ZM2.5 125.216V128.233H3.5V125.216H2.5ZM2.5 131.25L2.5 134.267H3.5L3.5 131.25H2.5ZM2.5 137.285V140.302H3.5V137.285H2.5ZM2.5 143.319L2.5 146.336H3.5L3.5 143.319H2.5ZM2.5 149.353L2.5 152.371H3.5L3.5 149.353H2.5ZM2.5 155.388L2.5 158.405H3.5L3.5 155.388H2.5ZM2.5 161.422L2.5 164.44H3.5L3.5 161.422H2.5ZM2.5 167.457L2.5 170.474H3.5L3.5 167.457H2.5ZM2.5 173.491V175H3.5V173.491H2.5Z" fill="#3B2521"/>
</svg>
