<svg width="6" height="178" viewBox="0 0 6 178" fill="none" xmlns="http://www.w3.org/2000/svg">
<path d="M3 177.898L5.88675 175.011L3 172.125L0.113249 175.011L3 177.898ZM2.5 0V0.994383H3.5V0L2.5 0ZM2.5 2.98315L2.5 4.97192H3.5L3.5 2.98315H2.5ZM2.5 6.96068V8.94945H3.5L3.5 6.96068H2.5ZM2.5 10.9382V12.927H3.5V10.9382H2.5ZM2.5 14.9157L2.5 16.9045H3.5L3.5 14.9157H2.5ZM2.5 18.8933V20.882H3.5V18.8933H2.5ZM2.5 22.8708V24.8596H3.5V22.8708H2.5ZM2.5 26.8483V28.8371H3.5V26.8483H2.5ZM2.5 30.8259V32.8146H3.5V30.8259H2.5ZM2.5 34.8034V36.7922H3.5V34.8034H2.5ZM2.5 38.7809V40.7697H3.5V38.7809H2.5ZM2.5 42.7585V44.7472H3.5V42.7585H2.5ZM2.5 46.736L2.5 48.7248H3.5L3.5 46.736H2.5ZM2.5 50.7135V52.7023H3.5V50.7135H2.5ZM2.5 54.6911L2.5 56.6798H3.5L3.5 54.6911H2.5ZM2.5 58.6686L2.5 60.6574H3.5L3.5 58.6686H2.5ZM2.5 62.6461V64.6349H3.5V62.6461H2.5ZM2.5 66.6237L2.5 68.6124H3.5L3.5 66.6237H2.5ZM2.5 70.6012V72.59H3.5V70.6012H2.5ZM2.5 74.5787V76.5675H3.5V74.5787H2.5ZM2.5 78.5563L2.5 80.545H3.5V78.5563H2.5ZM2.5 82.5338V84.5226H3.5V82.5338H2.5ZM2.5 86.5114V88.5001H3.5V86.5114H2.5ZM2.5 90.4889V92.4777H3.5V90.4889H2.5ZM2.5 94.4664V96.4552H3.5V94.4664H2.5ZM2.5 98.444L2.5 100.433H3.5V98.444H2.5ZM2.5 102.422V104.41H3.5V102.422H2.5ZM2.5 106.399V108.388H3.5L3.5 106.399H2.5ZM2.5 110.377L2.5 112.365H3.5L3.5 110.377H2.5ZM2.5 114.354V116.343H3.5V114.354H2.5ZM2.5 118.332L2.5 120.32H3.5L3.5 118.332H2.5ZM2.5 122.309V124.298H3.5L3.5 122.309H2.5ZM2.5 126.287V128.276H3.5V126.287H2.5ZM2.5 130.264L2.5 132.253H3.5L3.5 130.264H2.5ZM2.5 134.242V136.231H3.5V134.242H2.5ZM2.5 138.219V140.208H3.5V138.219H2.5ZM2.5 142.197V144.186H3.5V142.197H2.5ZM2.5 146.174V148.163H3.5V146.174H2.5ZM2.5 150.152V152.141H3.5V150.152H2.5ZM2.5 154.13V156.118H3.5V154.13H2.5ZM2.5 158.107V160.096H3.5V158.107H2.5ZM2.5 162.085L2.5 164.073H3.5L3.5 162.085H2.5ZM2.5 166.062V168.051H3.5V166.062H2.5ZM2.5 170.04V172.028H3.5L3.5 170.04H2.5ZM2.5 174.017V175.011H3.5V174.017H2.5ZM3 177.898L5.88675 175.011L3 172.125L0.113249 175.011L3 177.898ZM2.5 0V0.994383H3.5V0L2.5 0ZM2.5 2.98315L2.5 4.97192H3.5L3.5 2.98315H2.5ZM2.5 6.96068V8.94945H3.5L3.5 6.96068H2.5ZM2.5 10.9382V12.927H3.5V10.9382H2.5ZM2.5 14.9157L2.5 16.9045H3.5L3.5 14.9157H2.5ZM2.5 18.8933V20.882H3.5V18.8933H2.5ZM2.5 22.8708V24.8596H3.5V22.8708H2.5ZM2.5 26.8483V28.8371H3.5V26.8483H2.5ZM2.5 30.8259V32.8146H3.5V30.8259H2.5ZM2.5 34.8034V36.7922H3.5V34.8034H2.5ZM2.5 38.7809V40.7697H3.5V38.7809H2.5ZM2.5 42.7585V44.7472H3.5V42.7585H2.5ZM2.5 46.736L2.5 48.7248H3.5L3.5 46.736H2.5ZM2.5 50.7135V52.7023H3.5V50.7135H2.5ZM2.5 54.6911L2.5 56.6798H3.5L3.5 54.6911H2.5ZM2.5 58.6686L2.5 60.6574H3.5L3.5 58.6686H2.5ZM2.5 62.6461V64.6349H3.5V62.6461H2.5ZM2.5 66.6237L2.5 68.6124H3.5L3.5 66.6237H2.5ZM2.5 70.6012V72.59H3.5V70.6012H2.5ZM2.5 74.5787V76.5675H3.5V74.5787H2.5ZM2.5 78.5563L2.5 80.545H3.5V78.5563H2.5ZM2.5 82.5338V84.5226H3.5V82.5338H2.5ZM2.5 86.5114V88.5001H3.5V86.5114H2.5ZM2.5 90.4889V92.4777H3.5V90.4889H2.5ZM2.5 94.4664V96.4552H3.5V94.4664H2.5ZM2.5 98.444L2.5 100.433H3.5V98.444H2.5ZM2.5 102.422V104.41H3.5V102.422H2.5ZM2.5 106.399V108.388H3.5L3.5 106.399H2.5ZM2.5 110.377L2.5 112.365H3.5L3.5 110.377H2.5ZM2.5 114.354V116.343H3.5V114.354H2.5ZM2.5 118.332L2.5 120.32H3.5L3.5 118.332H2.5ZM2.5 122.309V124.298H3.5L3.5 122.309H2.5ZM2.5 126.287V128.276H3.5V126.287H2.5ZM2.5 130.264L2.5 132.253H3.5L3.5 130.264H2.5ZM2.5 134.242V136.231H3.5V134.242H2.5ZM2.5 138.219V140.208H3.5V138.219H2.5ZM2.5 142.197V144.186H3.5V142.197H2.5ZM2.5 146.174V148.163H3.5V146.174H2.5ZM2.5 150.152V152.141H3.5V150.152H2.5ZM2.5 154.13V156.118H3.5V154.13H2.5ZM2.5 158.107V160.096H3.5V158.107H2.5ZM2.5 162.085L2.5 164.073H3.5L3.5 162.085H2.5ZM2.5 166.062V168.051H3.5V166.062H2.5ZM2.5 170.04V172.028H3.5L3.5 170.04H2.5ZM2.5 174.017V175.011H3.5V174.017H2.5Z" fill="#3B2521"/>
</svg>