<svg viewBox="0 0 425 244" fill="none" xmlns="http://www.w3.org/2000/svg">
<path d="M4.66464 114C4.66464 79.4277 -1.5337 18.1114 7.98357 10.0557C17.5008 2.00001 53.8462 2.00001 77.0004 2.00001H77.001C153.728 2.00001 230.777 2.31831 307.501 1.99996C329.062 1.91049 356.849 2.00007 378.377 2.00007C390.205 2.00007 404.001 0.441222 415.501 4.50005C419.501 20.5 417.208 88.2166 417.208 102.986C417.208 135.09 422.589 167.032 423.182 199.069C423.415 211.627 423.443 225.223 420.195 237.403C419.453 240.188 414.943 240.058 412.728 240.058C401.17 240.058 389.915 238.778 378.377 238.564C353.544 238.105 328.656 237.071 303.701 237.071C278.176 237.071 252.517 236.322 227.033 237.901C204.61 239.29 182.287 241.359 159.825 241.551C120.42 241.888 81.0902 241.551 41.6708 241.551C29.9733 241.551 18.4626 239.706 6.82194 238.647C1.76963 238.188 2.00949 236.143 2.00949 231.595C2.00949 210.363 0.894854 189.193 2.50041 168C3.86683 149.963 4.66464 132.177 4.66464 114Z" stroke="#3D7B80" stroke-width="3" stroke-linecap="round" stroke-linejoin="round"/>
</svg>
