<svg width="300" height="8" viewBox="0 0 181 6" fill="none" xmlns="http://www.w3.org/2000/svg">
<path d="M0.107389 2.91815L2.99414 5.8049L5.88089 2.91815L2.99414 0.0314005L0.107389 2.91815ZM180.892 2.91815L178.006 0.0314005L175.119 2.91815L178.006 5.8049L180.892 2.91815ZM2.99414 3.41815H3.98852V2.41815H2.99414V3.41815ZM5.97729 3.41815H7.96606V2.41815H5.97729V3.41815ZM9.95482 3.41815H11.9436V2.41815H9.95482V3.41815ZM13.9324 3.41815H15.9211V2.41815H13.9324V3.41815ZM17.9099 3.41815H19.8987V2.41815H17.9099V3.41815ZM21.8874 3.41815H23.8762V2.41815H21.8874V3.41815ZM25.8649 3.41815L27.8537 3.41815V2.41815H25.8649V3.41815ZM29.8425 3.41815H31.8312V2.41815H29.8425V3.41815ZM33.82 3.41815H35.8088V2.41815H33.82V3.41815ZM37.7975 3.41815H39.7863V2.41815H37.7975V3.41815ZM41.7751 3.41815H43.7638V2.41815H41.7751V3.41815ZM45.7526 3.41815H47.7414V2.41815H45.7526V3.41815ZM49.7301 3.41815H51.7189V2.41815H49.7301V3.41815ZM53.7077 3.41815H55.6964V2.41815H53.7077V3.41815ZM57.6852 3.41815H59.674V2.41815H57.6852V3.41815ZM61.6627 3.41815H63.6515V2.41815H61.6627V3.41815ZM65.6403 3.41815H67.629V2.41815H65.6403V3.41815ZM69.6178 3.41815H71.6066V2.41815H69.6178V3.41815ZM73.5953 3.41815H75.5841V2.41815H73.5953V3.41815ZM77.5729 3.41815H79.5616V2.41815L77.5729 2.41815V3.41815ZM81.5504 3.41815H83.5392V2.41815H81.5504V3.41815ZM85.528 3.41815H87.5167V2.41815H85.528V3.41815ZM89.5055 3.41815H91.4943V2.41815H89.5055V3.41815ZM93.483 3.41815H95.4718V2.41815H93.483V3.41815ZM97.4606 3.41815H99.4493V2.41815H97.4606V3.41815ZM101.438 3.41815H103.427V2.41815H101.438V3.41815ZM105.416 3.41815H107.404V2.41815H105.416V3.41815ZM109.393 3.41815H111.382V2.41815H109.393V3.41815ZM113.371 3.41815H115.359V2.41815H113.371V3.41815ZM117.348 3.41815H119.337V2.41815H117.348V3.41815ZM121.326 3.41815H123.315V2.41815H121.326V3.41815ZM125.303 3.41815H127.292V2.41815H125.303V3.41815ZM129.281 3.41815H131.27V2.41815H129.281V3.41815ZM133.258 3.41815H135.247V2.41815H133.258V3.41815ZM137.236 3.41815H139.225V2.41815H137.236V3.41815ZM141.214 3.41815H143.202V2.41815H141.214V3.41815ZM145.191 3.41815H147.18V2.41815H145.191V3.41815ZM149.169 3.41815H151.157V2.41815H149.169V3.41815ZM153.146 3.41815H155.135V2.41815H153.146V3.41815ZM157.124 3.41815H159.112V2.41815H157.124V3.41815ZM161.101 3.41815H163.09V2.41815H161.101V3.41815ZM165.079 3.41815H167.068V2.41815H165.079V3.41815ZM169.056 3.41815H171.045V2.41815H169.056V3.41815ZM173.034 3.41815H175.023V2.41815H173.034V3.41815ZM177.011 3.41815H178.006V2.41815H177.011V3.41815ZM0.107389 2.91815L2.99414 5.8049L5.88089 2.91815L2.99414 0.0314005L0.107389 2.91815ZM180.892 2.91815L178.006 0.0314005L175.119 2.91815L178.006 5.8049L180.892 2.91815ZM2.99414 3.41815H3.98852V2.41815H2.99414V3.41815ZM5.97729 3.41815H7.96606V2.41815H5.97729V3.41815ZM9.95482 3.41815H11.9436V2.41815H9.95482V3.41815ZM13.9324 3.41815H15.9211V2.41815H13.9324V3.41815ZM17.9099 3.41815H19.8987V2.41815H17.9099V3.41815ZM21.8874 3.41815H23.8762V2.41815H21.8874V3.41815ZM25.8649 3.41815L27.8537 3.41815V2.41815H25.8649V3.41815ZM29.8425 3.41815H31.8312V2.41815H29.8425V3.41815ZM33.82 3.41815H35.8088V2.41815H33.82V3.41815ZM37.7975 3.41815H39.7863V2.41815H37.7975V3.41815ZM41.7751 3.41815H43.7638V2.41815H41.7751V3.41815ZM45.7526 3.41815H47.7414V2.41815H45.7526V3.41815ZM49.7301 3.41815H51.7189V2.41815H49.7301V3.41815ZM53.7077 3.41815H55.6964V2.41815H53.7077V3.41815ZM57.6852 3.41815H59.674V2.41815H57.6852V3.41815ZM61.6627 3.41815H63.6515V2.41815H61.6627V3.41815ZM65.6403 3.41815H67.629V2.41815H65.6403V3.41815ZM69.6178 3.41815H71.6066V2.41815H69.6178V3.41815ZM73.5953 3.41815H75.5841V2.41815H73.5953V3.41815ZM77.5729 3.41815H79.5616V2.41815L77.5729 2.41815V3.41815ZM81.5504 3.41815H83.5392V2.41815H81.5504V3.41815ZM85.528 3.41815H87.5167V2.41815H85.528V3.41815ZM89.5055 3.41815H91.4943V2.41815H89.5055V3.41815ZM93.483 3.41815H95.4718V2.41815H93.483V3.41815ZM97.4606 3.41815H99.4493V2.41815H97.4606V3.41815ZM101.438 3.41815H103.427V2.41815H101.438V3.41815ZM105.416 3.41815H107.404V2.41815H105.416V3.41815ZM109.393 3.41815H111.382V2.41815H109.393V3.41815ZM113.371 3.41815H115.359V2.41815H113.371V3.41815ZM117.348 3.41815H119.337V2.41815H117.348V3.41815ZM121.326 3.41815H123.315V2.41815H121.326V3.41815ZM125.303 3.41815H127.292V2.41815H125.303V3.41815ZM129.281 3.41815H131.27V2.41815H129.281V3.41815ZM133.258 3.41815H135.247V2.41815H133.258V3.41815ZM137.236 3.41815H139.225V2.41815H137.236V3.41815ZM141.214 3.41815H143.202V2.41815H141.214V3.41815ZM145.191 3.41815H147.18V2.41815H145.191V3.41815ZM149.169 3.41815H151.157V2.41815H149.169V3.41815ZM153.146 3.41815H155.135V2.41815H153.146V3.41815ZM157.124 3.41815H159.112V2.41815H157.124V3.41815ZM161.101 3.41815H163.09V2.41815H161.101V3.41815ZM165.079 3.41815H167.068V2.41815H165.079V3.41815ZM169.056 3.41815H171.045V2.41815H169.056V3.41815ZM173.034 3.41815H175.023V2.41815H173.034V3.41815ZM177.011 3.41815H178.006V2.41815H177.011V3.41815Z" fill="#3B2521"/>
</svg>