<svg viewBox="0 0 64 37" fill="none" xmlns="http://www.w3.org/2000/svg">
<path d="M48.2953 1.81973C33.6811 2.56705 19.0548 2.11045 4.43383 2.11045C3.03219 2.11045 2.37598 2.24759 1.99977 3C1.5 4.5 1.5 5.62775 1.5 7.5C1.5 11.271 1.75085 15.121 1.8174 18.881C1.9788 28 2.73575 33.4589 4 34.5C5 35.5 18.2646 34.8745 22.2946 35.1065C28.0562 35.4381 52.0164 33.8593 57.5164 33.7528C59.3931 33.5732 62.5 34 62.7402 30.7276C62.6453 27.0775 62.7402 27.1512 62.7402 23.5C62.7402 22.0197 62.7731 7.96488 62.5 6.5C62.2119 4.95451 61.7813 2.11673 59.9329 1.95601C56.0997 1.62268 52.1425 1.623 48.2953 1.81973Z" stroke="#3D7B80" stroke-width="2" stroke-linecap="round"/>
</svg>
